<svg width="24" height="25" viewBox="0 0 24 25" fill="none" xmlns="http://www.w3.org/2000/svg">
<path d="M11.1095 0.549993L0.109518 22.55C0.0232848 22.7224 -0.011267 22.9161 0.0100231 23.1077C0.0313133 23.2993 0.107538 23.4807 0.229518 23.63C0.349011 23.7726 0.505905 23.879 0.682562 23.9373C0.859219 23.9956 1.04864 24.0034 1.22952 23.96L10.9995 21.31L10.9995 9.99999L12.9995 9.99999L12.9995 21.31L22.7395 24C22.8906 24.0408 23.0491 24.0455 23.2023 24.0139C23.3555 23.9823 23.4992 23.9151 23.6218 23.8178C23.7443 23.7206 23.8423 23.5959 23.908 23.4539C23.9736 23.3118 24.0049 23.1564 23.9995 23C23.9986 22.8435 23.9609 22.6893 23.8895 22.55L12.8895 0.549993C12.8056 0.386192 12.6781 0.248727 12.5211 0.152736C12.364 0.056745 12.1836 0.00595421 11.9995 0.00595422C11.8155 0.00595423 11.635 0.056745 11.478 0.152736C11.3209 0.248727 11.1934 0.386192 11.1095 0.549993Z" fill="white"/>
</svg>
