<svg width="37" height="38" viewBox="0 0 37 38" fill="none" xmlns="http://www.w3.org/2000/svg">
<path d="M35.585 33.8503L27.3925 25.3801C29.3649 22.6653 30.4296 19.3609 30.426 15.9655C30.426 7.29277 23.6014 0.236816 15.213 0.236816C6.82461 0.236816 0 7.29277 0 15.9655C0 24.6383 6.82461 31.6942 15.213 31.6942C18.497 31.6979 21.6931 30.5971 24.3189 28.5579L32.5114 37.0281C32.9261 37.4113 33.467 37.6159 34.023 37.5998C34.579 37.5838 35.108 37.3482 35.5013 36.9415C35.8946 36.5349 36.1224 35.988 36.138 35.4131C36.1536 34.8382 35.9557 34.279 35.585 33.8503ZM4.34657 15.9655C4.34657 13.7435 4.98388 11.5714 6.1779 9.72381C7.37192 7.87626 9.06902 6.43627 11.0546 5.58593C13.0402 4.7356 15.2251 4.51311 17.3329 4.94661C19.4408 5.3801 21.377 6.45011 22.8967 8.02133C24.4164 9.59254 25.4514 11.5944 25.8707 13.7737C26.2899 15.9531 26.0747 18.212 25.2523 20.2649C24.4298 22.3178 23.0371 24.0724 21.2501 25.3069C19.4631 26.5414 17.3622 27.2003 15.213 27.2003C12.3321 27.1967 9.5702 26.0119 7.5331 23.9058C5.49599 21.7996 4.35003 18.9441 4.34657 15.9655Z" fill="white"/>
</svg>
